<svg width="26" height="21" viewBox="0 0 26 21" fill="none" xmlns="http://www.w3.org/2000/svg">
<path d="M25.6 2.464C24.64 2.88 23.648 3.168 22.592 3.296C23.68 2.656 24.512 1.632 24.896 0.384C23.872 0.992 22.752 1.408 21.568 1.664C20.608 0.64 19.232 0 17.728 0C14.816 0 12.48 2.368 12.48 5.248C12.48 5.664 12.512 6.048 12.608 6.432C8.256 6.24 4.416 4.128 1.824 0.96C-0.0319998 4.288 2.048 7.04 3.424 7.968C2.592 7.968 1.76 7.712 1.056 7.328C1.056 9.92 2.88 12.064 5.248 12.544C4.736 12.704 3.584 12.8 2.88 12.64C3.552 14.72 5.504 16.256 7.776 16.288C5.984 17.696 3.36 18.816 0 18.464C2.336 19.968 5.088 20.832 8.064 20.832C17.728 20.832 22.976 12.832 22.976 5.92C22.976 5.696 22.976 5.472 22.944 5.248C24.032 4.448 24.928 3.52 25.6 2.464Z" fill="white"/>
</svg>
